<?xml version="1.0" encoding="utf-8"?>
<!-- Generator: Adobe Illustrator 26.0.3, SVG Export Plug-In . SVG Version: 6.00 Build 0)  -->
<svg version="1.1"
	 id="svg4" inkscape:export-filename="C:\Users\alex\sites\valorant-logo-0.png" inkscape:version="0.92.3 (2405546, 2018-03-11)" sodipodi:docname="valorant-logo.svg" xmlns:cc="http://creativecommons.org/ns#" xmlns:dc="http://purl.org/dc/elements/1.1/" xmlns:inkscape="http://www.inkscape.org/namespaces/inkscape" xmlns:rdf="http://www.w3.org/1999/02/22-rdf-syntax-ns#" xmlns:sodipodi="http://sodipodi.sourceforge.net/DTD/sodipodi-0.dtd" xmlns:svg="http://www.w3.org/2000/svg"
	 xmlns="http://www.w3.org/2000/svg" xmlns:xlink="http://www.w3.org/1999/xlink" x="0px" y="0px" viewBox="0 0 700 574"
	 style="enable-background:new 0 0 700 574;" xml:space="preserve">
<style type="text/css">
	.st0{fill:#FF4655;}
	.st1{fill:none;}
</style>
<sodipodi:namedview  bordercolor="#666666" borderopacity="1" gridtolerance="10" guidetolerance="10" id="namedview6" inkscape:current-layer="svg4" inkscape:cx="334.32018" inkscape:cy="266.24036" inkscape:pageopacity="0" inkscape:pageshadow="2" inkscape:window-height="838" inkscape:window-maximized="1" inkscape:window-width="1600" inkscape:window-x="-8" inkscape:window-y="-8" inkscape:zoom="0.70710678" objecttolerance="10" pagecolor="#ffffff" showgrid="false">
	</sodipodi:namedview>
<path id="path2-9" inkscape:connector-curvature="0" inkscape:export-filename="C:\Users\alex\sites\valorant-logo-5.png" inkscape:export-xdpi="68.464676" inkscape:export-ydpi="68.464676" class="st0" d="
	M695.4-0.3c-1.3-0.1-2.7,0.4-3.7,1.7L394.6,372.8c-1.5,1.9-1.2,4.7,0.7,6.2c0.8,0.6,1.8,1,2.8,1h214.7c5.8,0,11.3-2.6,14.9-7.2
	l67.8-84.8c2.7-3.4,4.2-7.6,4.2-11.9V4.2C699.7,1.6,697.6-0.1,695.4-0.3L695.4-0.3z M4.6-0.2C2.4-0.1,0.3,1.6,0.3,4.2v272
	c0,4.3,1.5,8.5,4.2,11.9l223.2,279c3.6,4.5,9.1,7.2,14.9,7.2h214.7c3.8,0,5.8-4.3,3.5-7.2L8.3,1.4C7.3,0.2,5.9-0.3,4.6-0.2L4.6-0.2z
	"/>
<rect class="st1" width="699.4" height="574"/>
</svg>
